<?xml version="1.0" standalone="no"?>
<!DOCTYPE svg PUBLIC "-//W3C//DTD SVG 20010904//EN"
 "http://www.w3.org/TR/2001/REC-SVG-20010904/DTD/svg10.dtd">
<svg version="1.0" xmlns="http://www.w3.org/2000/svg"
 width="1600.000000pt" height="1195.000000pt" viewBox="0 0 1600.000000 1195.000000"
 preserveAspectRatio="xMidYMid meet">
<metadata>
Created by potrace 1.16, written by Peter Selinger 2001-2019
</metadata>
<g transform="translate(0.000000,1195.000000) scale(0.100000,-0.100000)"
fill="#000000" stroke="none">
<path d="M7180 11271 c0 -11 4 -21 10 -23 5 -1 68 -241 140 -533 71 -291 134
-539 139 -550 23 -48 8 27 -49 255 -33 132 -60 246 -60 255 0 13 39 15 316 15
l316 0 -5 -27 c-6 -35 10 -70 37 -77 32 -9 906 -7 906 2 0 4 -15 65 -33 137
l-33 129 27 115 c15 63 30 125 33 137 l6 24 -402 2 -403 3 -3 35 c-2 19 -8 41
-14 47 -8 10 -110 13 -449 13 l-439 0 0 30 c0 23 -4 30 -20 30 -13 0 -20 -7
-20 -19z"/>
<path d="M7500 10039 c0 -8 86 -361 190 -785 105 -423 210 -851 234 -952 24
-101 46 -186 50 -189 19 -19 11 24 -38 218 -30 118 -136 547 -236 954 -100
407 -186 747 -191 755 -7 13 -8 13 -9 -1z"/>
<path d="M6760 9887 c-15 -7 -31 -30 -41 -57 -10 -27 -26 -49 -40 -56 -13 -6
-37 -18 -54 -25 -18 -9 -40 -33 -55 -61 -19 -36 -32 -48 -62 -57 -41 -13 -68
-43 -68 -77 0 -30 10 -35 34 -19 11 8 23 15 27 15 4 0 21 -22 39 -49 34 -54
35 -55 111 -15 17 8 32 14 34 12 2 -2 18 -57 35 -123 18 -66 36 -123 40 -128
5 -6 268 48 277 57 2 1 6 73 9 160 8 178 1 164 111 220 l53 26 -20 51 c-10 28
-21 53 -23 55 -9 9 -244 -99 -262 -121 -11 -13 -30 -28 -42 -34 -27 -14 -83
-14 -103 -1 -13 9 -13 12 2 20 25 15 33 68 14 89 -22 24 -20 41 3 41 20 0 61
44 61 65 0 25 -42 31 -80 12z"/>
<path d="M6416 7774 c-122 -19 -271 -68 -391 -129 -379 -192 -646 -553 -720
-972 -19 -106 -22 -317 -6 -431 59 -418 337 -805 717 -999 215 -110 373 -148
619 -148 141 0 188 4 274 23 413 92 749 351 934 718 159 317 186 705 70 1044
-38 111 -124 274 -197 370 -260 346 -657 542 -1091 539 -66 -1 -160 -7 -209
-15z m357 -1017 c136 -63 215 -192 205 -337 -12 -163 -136 -299 -291 -319
-156 -20 -300 58 -365 197 -23 49 -27 70 -27 147 0 79 4 97 28 142 52 99 126
161 226 190 63 18 161 9 224 -20z"/>
<path d="M9904 7674 c-12 -99 2 -311 26 -394 51 -175 138 -321 265 -446 263
-258 654 -350 998 -235 l80 27 -90 105 c-261 301 -611 605 -941 816 -132 84
-305 183 -320 183 -6 0 -14 -25 -18 -56z"/>
<path d="M4604 6724 c-173 -203 -256 -320 -552 -777 -78 -120 -142 -220 -142
-223 0 -2 181 -3 403 -2 l402 3 3 558 c1 306 -2 557 -6 557 -5 0 -54 -52 -108
-116z"/>
<path d="M11415 5121 c-45 -11 -53 -16 -406 -252 -278 -185 -328 -222 -344
-254 -31 -67 -9 -139 59 -189 27 -21 36 -21 749 -21 676 0 724 1 755 18 73 40
98 155 47 216 -38 44 -668 461 -723 477 -48 15 -89 16 -137 5z"/>
<path d="M6040 2525 l0 -1595 1600 0 1600 0 0 319 0 318 -102 7 c-476 32 -854
147 -1222 374 -717 441 -1164 1195 -1212 2050 l-7 122 -328 0 -329 0 0 -1595z"/>
<path d="M10119 4105 c-11 -10 29 -209 59 -295 84 -244 227 -453 420 -613 100
-82 147 -114 262 -175 162 -87 437 -175 467 -150 7 6 13 14 13 17 0 4 -49 20
-109 35 -271 68 -500 194 -682 375 -119 119 -173 190 -239 315 -73 136 -108
232 -134 371 -16 84 -27 121 -37 123 -8 1 -17 0 -20 -3z"/>
<path d="M12194 4089 c-115 -44 -185 -142 -192 -270 -4 -67 -1 -83 23 -136 50
-112 141 -175 262 -181 104 -6 163 17 234 87 71 72 94 132 87 235 -13 208
-220 340 -414 265z"/>
<path d="M8855 3744 c-302 -21 -622 -168 -835 -384 -160 -161 -328 -462 -321
-572 2 -36 29 -17 41 30 19 69 67 175 122 269 181 308 508 534 868 600 47 9
141 16 210 16 191 0 303 -37 398 -132 171 -171 202 -462 75 -703 -37 -70 -42
-75 -72 -58 -10 5 -63 21 -117 35 -255 67 -530 5 -672 -149 -95 -105 -97 -259
-4 -338 33 -28 121 -58 167 -58 149 0 443 179 610 370 26 30 51 59 55 63 20
23 160 -72 276 -187 132 -131 260 -339 329 -533 13 -38 24 -53 37 -53 23 0 23
13 -3 80 -120 317 -307 558 -545 704 l-61 37 43 82 c51 100 74 197 74 315 0
271 -146 481 -380 545 -57 16 -209 27 -295 21z m305 -925 c93 -21 180 -50 180
-61 0 -20 -103 -129 -184 -194 -98 -78 -245 -168 -324 -197 -152 -55 -295 2
-309 124 -15 135 87 245 285 310 74 24 104 28 197 28 61 0 130 -4 155 -10z"/>
<path d="M11905 2620 l-630 -630 633 0 632 0 0 630 c0 347 -1 630 -3 630 -1 0
-286 -283 -632 -630z"/>
<path d="M1918 2673 c-14 -18 -144 -216 -187 -285 l-23 -38 922 0 c1013 0 959
-3 1017 63 75 86 46 209 -62 258 -38 18 -86 19 -846 19 -755 0 -807 -1 -821
-17z"/>
<path d="M1287 1707 c-2 -7 -62 -99 -131 -206 -141 -214 -137 -199 -59 -253
245 -168 583 -199 851 -78 204 93 380 279 456 483 l26 67 -569 0 c-451 0 -570
-3 -574 -13z"/>
<path d="M14020 457 l0 -457 575 0 c455 0 574 3 570 13 -38 123 -54 165 -90
238 -58 118 -115 199 -208 296 -204 213 -473 342 -749 360 l-98 6 0 -456z"/>
<path d="M1620 725 c-365 -82 -672 -318 -869 -667 l-32 -58 2555 0 c1836 0
2556 3 2556 11 0 21 -89 195 -138 269 -201 306 -517 469 -863 446 -251 -16
-412 -66 -908 -280 -409 -177 -570 -219 -831 -219 -137 0 -178 3 -245 21 -120
33 -246 100 -385 207 -227 173 -287 210 -413 251 -70 23 -103 28 -222 30 -97
2 -160 -1 -205 -11z"/>
<path d="M6145 631 c-94 -42 -139 -154 -100 -249 82 -194 375 -143 375 65 0
66 -17 109 -61 149 -60 55 -141 69 -214 35z m162 -22 c64 -31 97 -91 91 -168
-5 -69 -32 -113 -88 -141 -73 -37 -162 -21 -213 39 -74 89 -52 211 48 268 50
28 106 29 162 2z"/>
</g>
</svg>
